<svg id="Layer_1" data-name="Layer 1" xmlns="http://www.w3.org/2000/svg" viewBox="0 0 500 500" width="500" height="500" class="illustration"><defs><style>.cls-1{fill:#f2f2f2;}.cls-2{fill:#c3c7c9;opacity:0.26;}.cls-3{fill:#24285b;}.cls-4{fill:#fff;}.cls-5{fill:#0099f5;}.cls-6{fill:#f9bb0d;}.cls-7{fill:#ffd44d;}.cls-8{fill:#0086f4;}.cls-9{fill:#f0457d;}</style></defs><title>Internet security</title><path class="cls-1" d="M448,125V384A14.27,14.27,0,0,1,433.7,398.3H44.49A14.27,14.27,0,0,1,30.22,384V125Z"></path><path class="cls-2" d="M30.22,125v33.09H426V398.3h7.71A14.27,14.27,0,0,0,448,384V125Z"></path><path class="cls-3" d="M448,75.62v63.09H30.22V75.62A14.26,14.26,0,0,1,44.49,61.36H433.7A14.26,14.26,0,0,1,448,75.62Z"></path><circle class="cls-4" cx="121.33" cy="97.4" r="6.94"></circle><circle class="cls-4" cx="89.71" cy="97.4" r="6.94"></circle><circle class="cls-4" cx="58.1" cy="97.4" r="6.94"></circle><path class="cls-5" d="M470.77,342.94c-34.58-11.54-59.23-34-59.23-34s-24.64,22.47-59.22,34c0,0-2.08,73,59.22,95.79C472.85,415.91,470.77,342.94,470.77,342.94Z"></path><path class="cls-3" d="M414.18,343.78h-5.27A13.33,13.33,0,0,0,395.6,357.1v10.54a2.77,2.77,0,1,0,5.53,0V357.1a7.79,7.79,0,0,1,7.78-7.78h5.27A7.79,7.79,0,0,1,422,357.1v10.57h5.53V357.1A13.33,13.33,0,0,0,414.18,343.78Z"></path><rect class="cls-6" x="388.91" y="366.55" width="45.26" height="37.32" rx="3"></rect><rect class="cls-7" x="388.91" y="366.55" width="39.92" height="33.24" rx="3"></rect><path class="cls-3" d="M416.76,382a5.39,5.39,0,1,0-8.39,4.47v3.24a3.18,3.18,0,0,0,6.35,0v-3.49A5.37,5.37,0,0,0,416.76,382Z"></path><path class="cls-8" d="M470.77,342.94c-34.58-11.54-59.23-34-59.23-34s-3,2.75-8.4,6.81c10,7.56,28.33,19.69,50.82,27.2,0,0,1.88,66.12-50.82,92.16,2.66,1.31,5.46,2.53,8.4,3.63C472.85,415.91,470.77,342.94,470.77,342.94Z"></path><path class="cls-9" d="M232,292.21a52,52,0,0,1-51.89-51.89,4,4,0,0,1,8,0A43.89,43.89,0,1,0,232,196.43a4,4,0,1,1,0-8,51.89,51.89,0,1,1,0,103.78Z"></path><path class="cls-9" d="M237,208.75a4,4,0,0,1-3.08-1.44L223.66,195a4,4,0,0,1,.31-5.45l12.36-11.81a4,4,0,0,1,5.53,5.78l-9.66,9.23,7.88,9.45a4,4,0,0,1-.51,5.63A4,4,0,0,1,237,208.75Z"></path><path class="cls-4" d="M336.3,335.15H283.35v22H336.3a11,11,0,0,0,11-11h0A11,11,0,0,0,336.3,335.15Z"></path><path class="cls-9" d="M163.7,335.15a11,11,0,0,0-11,11h0a11,11,0,0,0,11,11H283.35v-22Z"></path></svg>