<svg id="Layer_1" data-name="Layer 1" xmlns="http://www.w3.org/2000/svg" viewBox="0 0 500 500" width="500" height="500" class="illustration"><defs><style>.cls-1{fill:#f2f2f2;}.cls-2{fill:#c3c7c9;opacity:0.26;}.cls-3{fill:#24285b;}.cls-4{fill:#fff;}.cls-5{fill:#ffd44d;}.cls-6{fill:#f9bb0d;}.cls-7{fill:#f0457d;}.cls-8{fill:#db2868;}.cls-9{fill:#0099f5;}</style></defs><title>Customer reviews</title><path class="cls-1" d="M441.05,157.69V416.76A14.26,14.26,0,0,1,426.79,431H37.58a14.26,14.26,0,0,1-14.27-14.26V157.69Z"></path><path class="cls-2" d="M23.31,157.69v33.09H419.08V431h7.71a14.26,14.26,0,0,0,14.26-14.26V157.69Z"></path><path class="cls-3" d="M441.05,108.35v63.09H23.31V108.35A14.27,14.27,0,0,1,37.58,94.08H426.79A14.27,14.27,0,0,1,441.05,108.35Z"></path><circle class="cls-4" cx="114.42" cy="130.12" r="6.94"></circle><circle class="cls-4" cx="82.8" cy="130.12" r="6.94"></circle><circle class="cls-4" cx="51.19" cy="130.12" r="6.94"></circle><polygon class="cls-5" points="382.48 148.75 416.95 159.6 393.62 233.74 379.65 217.93 359.14 222.89 382.48 148.75"></polygon><rect class="cls-6" x="375.11" y="153.18" width="36.14" height="43.52" transform="translate(70.67 -109.99) rotate(17.47)"></rect><polygon class="cls-5" points="451.53 148.75 417.06 159.6 440.4 233.74 454.37 217.93 474.87 222.89 451.53 148.75"></polygon><rect class="cls-6" x="422.76" y="153.18" width="36.14" height="43.52" transform="translate(913.85 209.43) rotate(162.53)"></rect><polygon class="cls-7" points="469.65 143.98 477.84 129.79 469.65 115.61 469.65 99.54 455.74 91.51 447.27 76.85 430.34 76.85 416.71 68.98 403.07 76.85 386.14 76.85 377.67 91.51 363.76 99.54 363.76 115.61 355.57 129.79 363.76 143.98 363.76 160.68 378.23 169.03 386.14 182.74 401.97 182.74 416.71 191.25 431.45 182.74 447.27 182.74 455.19 169.03 469.65 160.68 469.65 143.98"></polygon><polyline class="cls-8" points="416.71 191.25 431.45 182.74 447.27 182.74 455.19 169.03 469.65 160.68 469.65 143.98 477.84 129.79 469.65 115.61 469.65 99.54 455.74 91.51 447.27 76.85 430.34 76.85 416.71 68.98"></polyline><path class="cls-5" d="M419.73,97.88,428.18,115a3.33,3.33,0,0,0,2.5,1.81l18.89,2.75a3.32,3.32,0,0,1,1.84,5.66l-13.67,13.32a3.32,3.32,0,0,0-.95,2.94L440,160.3a3.32,3.32,0,0,1-4.82,3.5l-16.9-8.89a3.37,3.37,0,0,0-3.09,0l-16.9,8.89a3.32,3.32,0,0,1-4.81-3.5l3.23-18.82a3.36,3.36,0,0,0-1-2.94L382.1,125.22a3.32,3.32,0,0,1,1.84-5.66l18.89-2.75a3.32,3.32,0,0,0,2.5-1.81l8.45-17.12A3.32,3.32,0,0,1,419.73,97.88Z"></path><path class="cls-6" d="M451.41,125.23a3.32,3.32,0,0,0-1.84-5.66L441,118.32l-9.5,9.25a3.32,3.32,0,0,0-1,2.94l3.22,18.82a3.32,3.32,0,0,1-4.81,3.5L412,143.94a3.31,3.31,0,0,0-3.09,0l-13.9,7.31-1.55,9.06a3.32,3.32,0,0,0,4.81,3.5l16.9-8.89a3.31,3.31,0,0,1,3.09,0l16.9,8.89a3.32,3.32,0,0,0,4.82-3.5l-3.23-18.82a3.32,3.32,0,0,1,.95-2.94Z"></path><path class="cls-9" d="M76.9,239.62H70.55a3.35,3.35,0,1,1,0-6.7H76.9a3.35,3.35,0,0,1,0,6.7Z"></path><path class="cls-9" d="M98.09,239.62a3.35,3.35,0,0,1-.07-6.7l98.82-.19h.07a3.36,3.36,0,0,1,.07,6.71l-98.82.18Z"></path><path class="cls-9" d="M198.31,267.27H72a3.36,3.36,0,0,1,0-6.71H198.31a3.36,3.36,0,1,1,0,6.71Z"></path><rect class="cls-9" x="65.92" y="320.51" width="92.07" height="65.74" rx="13.4"></rect><rect class="cls-9" x="186.15" y="320.51" width="92.07" height="65.74" rx="13.4"></rect><rect class="cls-9" x="306.37" y="320.51" width="92.07" height="65.74" rx="13.4"></rect></svg>