<svg id="Layer_1" data-name="Layer 1" xmlns="http://www.w3.org/2000/svg" viewBox="0 0 500 500" width="500" height="500" class="illustration"><defs><style>.cls-1{fill:#e1e1e1;}.cls-2{fill:#f2f2f2;}.cls-3{fill:#ff1778;}.cls-4{fill:#27215e;}.cls-5{fill:#0092fc;}.cls-6{fill:#24285b;}.cls-7{fill:#f9bb0d;}.cls-8{fill:#ffd44d;}.cls-9{fill:#0086f4;}</style></defs><title>Internet security</title><rect class="cls-1" x="121.28" y="81.07" width="204.7" height="315.65" rx="10.6"></rect><rect class="cls-2" x="121.28" y="81.07" width="171.66" height="287.26" rx="10.6"></rect><rect class="cls-3" x="164.61" y="141.83" width="19.52" height="19.52" rx="3.15"></rect><rect class="cls-4" x="201.41" y="141.83" width="81.24" height="19.52" rx="3.15"></rect><rect class="cls-3" x="164.61" y="176.96" width="19.52" height="19.52" rx="3.15"></rect><rect class="cls-4" x="201.41" y="176.96" width="81.24" height="19.52" rx="3.15"></rect><rect class="cls-3" x="164.61" y="211.58" width="19.52" height="19.52" rx="3.15"></rect><rect class="cls-4" x="201.41" y="211.58" width="81.24" height="19.52" rx="3.15"></rect><rect class="cls-3" x="164.61" y="246.7" width="19.52" height="19.52" rx="3.15"></rect><rect class="cls-4" x="201.41" y="246.7" width="81.24" height="19.52" rx="3.15"></rect><path class="cls-5" d="M385.21,329.1c-34.58-11.54-59.23-34-59.23-34s-24.65,22.47-59.22,34c0,0-2.08,73,59.22,95.78C387.29,402.06,385.21,329.1,385.21,329.1Z"></path><path class="cls-6" d="M328.62,329.94h-5.27A13.33,13.33,0,0,0,310,343.25V353.8a2.77,2.77,0,1,0,5.54,0V343.25a7.79,7.79,0,0,1,7.78-7.77h5.27a7.79,7.79,0,0,1,7.78,7.77v10.57h5.53V343.25A13.32,13.32,0,0,0,328.62,329.94Z"></path><rect class="cls-7" x="303.35" y="352.71" width="45.26" height="37.32" rx="3"></rect><rect class="cls-8" x="303.35" y="352.71" width="39.92" height="33.24" rx="3"></rect><path class="cls-6" d="M331.2,368.15a5.39,5.39,0,1,0-8.4,4.47v3.23a3.18,3.18,0,1,0,6.36,0v-3.48A5.39,5.39,0,0,0,331.2,368.15Z"></path><path class="cls-9" d="M385.21,329.1c-34.58-11.54-59.23-34-59.23-34s-3,2.75-8.4,6.81c10,7.56,28.32,19.69,50.82,27.2,0,0,1.88,66.12-50.82,92.16a89.18,89.18,0,0,0,8.4,3.62C387.29,402.06,385.21,329.1,385.21,329.1Z"></path><rect class="cls-5" x="164.61" y="116.34" width="46.64" height="8.74"></rect><rect class="cls-4" x="259.87" y="81.07" width="3" height="15.78"></rect><rect class="cls-4" x="279.39" y="81.07" width="3" height="15.78"></rect><rect class="cls-4" x="300.68" y="81.07" width="3" height="15.78"></rect><rect class="cls-4" x="140.31" y="380.94" width="3" height="15.78"></rect><rect class="cls-4" x="159.83" y="380.94" width="3" height="15.78"></rect><rect class="cls-4" x="181.13" y="380.94" width="3" height="15.78"></rect></svg>