<svg xmlns="http://www.w3.org/2000/svg" viewBox="0 0 100 100" width="500" height="500" class="illustration"><defs><style>.cls-1{fill:#69d7f9;}.cls-2{fill:none;stroke:#3a00ba;stroke-miterlimit:10;stroke-width:2px;}</style></defs><g id="Layer_5" data-name="Layer 5"><path class="cls-1" d="M64.15,57.27s12.43,2.3,18.49-5.4c0,0-.82,8.35-10.64,9.5l-8.67.32Z"></path><path class="cls-1" d="M15.87,52.86S20,57.77,36,57.77V62S18.17,64.15,15.87,52.86Z"></path></g><g id="Layer_2" data-name="Layer 2"><path class="cls-2" d="M63.17,61.8H69A15.42,15.42,0,1,0,69,31H66.59a17.82,17.82,0,0,0-17.5-14.55h0A17.82,17.82,0,0,0,31.27,34.23v2.92H28A12.33,12.33,0,0,0,28,61.8H36"></path><rect class="cls-2" x="73.1" y="75.45" width="4.09" height="4.09" rx="2.04" transform="translate(-2.35 152.63) rotate(-90)"></rect><polyline class="cls-2" points="73.31 77.49 64.31 77.49 61.32 75.33"></polyline><rect class="cls-2" x="73.1" y="65.26" width="4.09" height="4.09" rx="2.04" transform="translate(142.44 -7.84) rotate(90)"></rect><line class="cls-2" x1="73.42" y1="67.3" x2="63.66" y2="67.3"></line><rect class="cls-2" x="67.75" y="70.06" width="4.09" height="4.09" rx="2.04" transform="translate(141.9 2.31) rotate(90)"></rect><line class="cls-2" x1="67.97" y1="72.1" x2="63.22" y2="72.1"></line><rect class="cls-2" x="22.18" y="75.45" width="4.09" height="4.09" rx="2.04" transform="translate(-53.27 101.71) rotate(-90)"></rect><polyline class="cls-2" points="26.51 77.49 35.05 77.49 38.04 75.33"></polyline><rect class="cls-2" x="22.18" y="65.26" width="4.09" height="4.09" rx="2.04" transform="translate(91.52 43.08) rotate(90)"></rect><line class="cls-2" x1="26.35" y1="67.3" x2="35.7" y2="67.3"></line><rect class="cls-2" x="27.52" y="70.06" width="4.09" height="4.09" rx="2.04" transform="translate(101.67 42.54) rotate(90)"></rect><line class="cls-2" x1="31.5" y1="72.1" x2="36.14" y2="72.1"></line><path class="cls-2" d="M60.34,76.19l-8.63,6.39a2.94,2.94,0,0,1-3.42,0l-8.63-6.39a9,9,0,0,1-3.26-6.78v-17H63.6v17A9,9,0,0,1,60.34,76.19Z"></path><path class="cls-2" d="M46.73,62v-1.6a2.9,2.9,0,0,1,2.91-2.9h.72a2.9,2.9,0,0,1,2.91,2.9v2.34"></path><rect class="cls-2" x="43.12" y="62.78" width="13.76" height="9.02"></rect></g></svg>