<svg xmlns="http://www.w3.org/2000/svg" viewBox="0 0 100 100" width="500" height="500" class="illustration"><defs><style>.cls-1{fill:#69d7f9;}.cls-2{fill:none;stroke:#3a00ba;stroke-miterlimit:10;stroke-width:2px;}</style></defs><g id="Layer_5" data-name="Layer 5"><path class="cls-1" d="M72.49,17s4.75,2.29,4.75,9.33h6.22V20.56S82.8,17,72.49,17Z"></path><path class="cls-1" d="M77.4,28.42V36.6s2.62,1,2.62,2.62-2.13,2.29-2.13,2.29V63.6c0,8.51-6.54,11.62-16.52,11.62H78.55s4.91.82,4.91-3.6V28.74Z"></path></g><g id="Layer_2" data-name="Layer 2"><path class="cls-2" d="M83.34,22.22v3.56H13.75V22.25a4.92,4.92,0,0,1,4.93-4.93h59.7A4.93,4.93,0,0,1,83.34,22.22Z"></path><path class="cls-2" d="M13.74,71.33a4.4,4.4,0,0,0,4.4,4.39h60.8a4.4,4.4,0,0,0,4.4-4.39V28.74H13.74Z"></path><line class="cls-2" x1="17.19" y1="21.76" x2="21.06" y2="21.76"></line><line class="cls-2" x1="22.55" y1="21.76" x2="26.42" y2="21.76"></line><line class="cls-2" x1="27.92" y1="21.76" x2="31.78" y2="21.76"></line><polyline class="cls-2" points="61.32 41.64 63.84 39.11 75 39.11"></polyline><line class="cls-2" x1="65.48" y1="42.71" x2="71.81" y2="42.71"></line><polyline class="cls-2" points="36.27 61.58 33.38 64.47 22.06 64.47"></polyline><line class="cls-2" x1="31.75" y1="60.87" x2="26.13" y2="60.87"></line><line class="cls-2" x1="29.89" y1="67.96" x2="24.27" y2="67.96"></line><path class="cls-2" d="M58,62.27,49.37,68.7a3,3,0,0,1-3.44,0l-8.68-6.43A9.07,9.07,0,0,1,34,55.45V38.32H61.32V55.45A9.08,9.08,0,0,1,58,62.27Z"></path><path class="cls-2" d="M44.36,48.8V46a2.44,2.44,0,0,1,2.44-2.44h1.69A2.44,2.44,0,0,1,50.93,46V48.8"></path><rect class="cls-2" x="40.73" y="48.8" width="13.83" height="9.06"></rect><circle class="cls-2" cx="20.05" cy="64.47" r="2.37"></circle><circle class="cls-2" cx="77.45" cy="39.11" r="2.37"></circle></g></svg>