<svg id="Layer_1" data-name="Layer 1" xmlns="http://www.w3.org/2000/svg" viewBox="0 0 500 500" width="500" height="500" class="illustration"><defs><style>.cls-1{fill:#24285b;}.cls-2{fill:#f0457d;}.cls-3,.cls-7{opacity:0.09;isolation:isolate;}.cls-4{fill:#ffd44d;}.cls-5{fill:#9c5631;}.cls-6{fill:#ffbeb3;}.cls-8{fill:none;stroke:#24285b;stroke-miterlimit:10;stroke-width:9px;}.cls-9{fill:#0099f5;}.cls-10{fill:#0086f4;}</style></defs><title>Creative Tools</title><rect class="cls-1" x="95.85" y="92.29" width="301.96" height="7.5"></rect><circle class="cls-2" cx="91.99" cy="95.65" r="13.3"></circle><g class="cls-3"><path d="M95,82.68a13.29,13.29,0,0,1-12.25,22.49A13.3,13.3,0,1,0,95,82.68Z"></path></g><circle class="cls-2" cx="401.98" cy="95.22" r="13.3"></circle><g class="cls-3"><path d="M399,82.26a13.29,13.29,0,0,0,12.25,22.49A13.3,13.3,0,1,1,399,82.26Z"></path></g><rect class="cls-4" x="203.77" y="315.01" width="85.84" height="15.26" rx="2.02"></rect><polygon class="cls-5" points="280.75 330.27 210.37 330.27 205.68 418.02 287 418.02 280.75 330.27"></polygon><path class="cls-6" d="M245.19,152.09c-7.12,19.1-29.44,73.78-63,108.15a2.61,2.61,0,0,0-.44,3.06L209.5,315h76.3l27.7-51.71a2.61,2.61,0,0,0-.44-3.06c-33.52-34.37-55.83-89.05-63-108.15A2.62,2.62,0,0,0,245.19,152.09Z"></path><path class="cls-7" d="M313.07,260.3c-33.52-34.37-55.84-89.05-63-108.15a2.62,2.62,0,0,0-4.91,0c-1.74,4.65-4.38,11.42-7.85,19.48,10.5,24.93,30,64.89,56.58,92.12a2.61,2.61,0,0,1,.44,3.06l-27.71,48.24h.75a3.08,3.08,0,0,1,3.07,3.07l-.44,9.12a3.06,3.06,0,0,1-3.07,3.07h-5.79l6.44,87.77H287l-6.25-87.75h5.79a3.06,3.06,0,0,0,3.07-3.07v-9.12a3.06,3.06,0,0,0-3.07-3.07h-.75l27.71-51.72A2.59,2.59,0,0,0,313.07,260.3Z"></path><path class="cls-1" d="M247.52,239.61a3.75,3.75,0,0,1-3.75-3.72L243.19,154a3.75,3.75,0,1,1,7.5-.05l.58,81.92a3.75,3.75,0,0,1-3.72,3.78Z"></path><circle class="cls-2" cx="246.64" cy="242.33" r="13.3"></circle><path class="cls-8" d="M65,283C65,180.81,147.83,98,250,98s185,82.82,185,185"></path><rect class="cls-9" x="234.51" y="85.49" width="27.19" height="27.19" rx="0.9" transform="translate(496.2 198.16) rotate(-180)"></rect><path class="cls-10" d="M236.09,85.49h3V108a1.58,1.58,0,0,0,1.58,1.58h21v1.53a1.59,1.59,0,0,1-1.59,1.59h-24a1.59,1.59,0,0,1-1.58-1.59v-24A1.58,1.58,0,0,1,236.09,85.49Z"></path><rect class="cls-9" x="51.22" y="270.32" width="27.19" height="27.19" rx="0.9" transform="translate(129.63 567.84) rotate(-180)"></rect><path class="cls-10" d="M52.8,270.32h3v22.49a1.59,1.59,0,0,0,1.58,1.59h21v1.53a1.59,1.59,0,0,1-1.59,1.58h-24a1.58,1.58,0,0,1-1.58-1.58v-24A1.59,1.59,0,0,1,52.8,270.32Z"></path><rect class="cls-9" x="421.55" y="269.41" width="27.19" height="27.19" rx="0.9" transform="translate(870.29 566.02) rotate(-180)"></rect><path class="cls-10" d="M423.13,269.41h3V291.9a1.59,1.59,0,0,0,1.58,1.59h21V295a1.58,1.58,0,0,1-1.58,1.58h-24a1.58,1.58,0,0,1-1.58-1.58V271A1.59,1.59,0,0,1,423.13,269.41Z"></path></svg>