<svg xmlns="http://www.w3.org/2000/svg" viewBox="0 0 500 500" width="500" height="500" class="illustration"><title>Website</title><g id="Layer_11" data-name="Layer 11"><path d="M297.28,115.71c-.7,10.06,11.1,17.93,10,28-.53,5-4.23,9.16-5.05,14.11s4.61,11.11,8.45,7.88a210.53,210.53,0,0,1-4.28,88.06,39.49,39.49,0,0,0,22.65-9.45,69.07,69.07,0,0,1,5.87-33.7c3-6.74,7.16-13,9.2-20.13s1.53-15.58-3.74-20.76c-3.87-3.8-10.57-7.32-8.76-12.43.75-2.13,2.84-3.42,4.29-5.15,4.36-5.16,2.34-13.08-1-19s-7.78-11.64-7.88-18.38c-.14-10,9.41-17.9,10.3-27.87a5.31,5.31,0,0,0-.86-3.93c-1.09-1.29-3-1.48-4.67-1.57-15.2-.81-15.34-2.38-21.38,8.76C306.85,96.85,297.82,108.13,297.28,115.71Z" fill="#3fe2fd"></path><polygon points="400.03 75.78 419.46 100.28 457.47 105.34 432.97 131.53 436.35 165.32 401.72 145.04 377.22 156.87 376.38 126.46 358.64 110.41 393.27 100.28 400.03 75.78" fill="#3fe2fd"></polygon><polygon points="346.81 196.57 361.17 214.31 385.67 205.86 388.2 193.19 362.86 188.97 348.5 174.61 346.81 196.57" fill="#3fe2fd"></polygon><polygon points="419.46 198.26 425.37 221.06 465.91 204.17 458.31 172.07 443.95 191.5 419.46 198.26" fill="#3fe2fd"></polygon><path d="M65,82.54V387.75l391.93,1.12s-2.25,23.66-15.76,25.91S45.83,417,45.83,417L32.31,390,37.94,91.55S58.22,76.91,65,82.54Z" fill="#3fe2fd"></path><path d="M175.49,286.14H85.25a7,7,0,0,0-7,7V363a7,7,0,0,0,7,7h90.24a7,7,0,0,0,7-7V293.14A7,7,0,0,0,175.49,286.14Zm-7,69.83H92.25V300.14h76.24Z" fill="#251ac7"></path><path d="M298.18,286.14H207.93a7,7,0,0,0-7,7V363a7,7,0,0,0,7,7h90.25a7,7,0,0,0,7-7V293.14A7,7,0,0,0,298.18,286.14Zm-7,69.83H214.93V300.14h76.25Z" fill="#251ac7"></path><path d="M420.86,286.14H330.62a7,7,0,0,0-7,7V363a7,7,0,0,0,7,7h90.24a7,7,0,0,0,7-7V293.14A7,7,0,0,0,420.86,286.14Zm-7,69.83H337.62V300.14h76.24Z" fill="#251ac7"></path><path d="M481.83,96.39V76.56a7,7,0,0,0-3.5-6.07l-17.17-9.91L450.66,42.4a7,7,0,0,0-6.06-3.5h-21l-16.79-9.69a7,7,0,0,0-7,0L383,38.9H362A7,7,0,0,0,356,42.4L345.44,60.58l-17.17,9.91A7.08,7.08,0,0,0,326,72.63H52.82A21.3,21.3,0,0,0,31.55,93.9V402.31a21.29,21.29,0,0,0,21.26,21.24H442a21.28,21.28,0,0,0,21.26-21.24V245.91l16.95,4.1a7,7,0,0,0,8.32-8.91l-21.79-69.2,11.56-6.68a7,7,0,0,0,3.5-6.06V138.47L492,120.92a7,7,0,0,0,0-7ZM45.55,93.9a7.28,7.28,0,0,1,7.27-7.27h272v9.76l-10.12,17.53a7,7,0,0,0,0,7l10.13,17.55V150H45.55ZM449.29,402.3a7.26,7.26,0,0,1-7.26,7.25H52.82a7.26,7.26,0,0,1-7.27-7.26V164H326.72a7.18,7.18,0,0,0,1.55,1.23l12.25,7.07L318.85,241.1a7,7,0,0,0,8.33,8.91l23.61-5.71,16.08,18.2a7,7,0,0,0,5.24,2.36,7.16,7.16,0,0,0,1.46-.15,7,7,0,0,0,5.22-4.74l17.46-55.5,3.56,2.05a7,7,0,0,0,7,0l4.23-2.44L428.64,260a7,7,0,0,0,5.22,4.74,7.16,7.16,0,0,0,1.46.15,7,7,0,0,0,5.24-2.36l8.73-9.88ZM351.35,184.5l4.59,8A7,7,0,0,0,362,196h19.51l2.31,1.34L369.16,244l-10.67-12.08a7,7,0,0,0-5.25-2.37,7.16,7.16,0,0,0-1.65.2l-15.66,3.79Zm120.14,49-15.65-3.79a7,7,0,0,0-6.9,2.17L438.27,244l-14.81-47,1.64-.95h19.5a7,7,0,0,0,6.06-3.5l5.12-8.86ZM468.77,133.1a7,7,0,0,0-.94,3.5v18.52l-16,9.26a6.91,6.91,0,0,0-2.56,2.56l-8.68,15H423.22a7.06,7.06,0,0,0-3.5.94l-16.41,9.48L386.9,182.9a7.09,7.09,0,0,0-3.5-.94H366.05l-8.67-15a6.91,6.91,0,0,0-2.56-2.56l-16.05-9.26V136.6a6.93,6.93,0,0,0-.94-3.5l-9-15.67,9-15.66a7,7,0,0,0,.94-3.5V80.6l15.3-8.83a7.06,7.06,0,0,0,2.56-2.56l9.42-16.31h18.83a6.93,6.93,0,0,0,3.5-.94l14.93-8.61L418.22,52a7,7,0,0,0,3.5.94h18.84L450,69.21a7,7,0,0,0,2.56,2.56l15.29,8.83V98.27a7.06,7.06,0,0,0,.94,3.5l9.05,15.66Z" fill="#251ac7"></path><path d="M448.71,96.68l-24.22-3.53L413.67,71.21h0a11.49,11.49,0,0,0-20.59,0L382.25,93.15,358,96.68a11.48,11.48,0,0,0-6.38,19.57l17.51,17.13L365,157.47a11.57,11.57,0,0,0,1.15,7.24,11.47,11.47,0,0,0,15.51,4.86l21.66-11.4L425,169.57a11.56,11.56,0,0,0,5.37,1.32,11.49,11.49,0,0,0,11.31-13.42l-4.12-24.14,17.52-17.08a11.47,11.47,0,0,0-6.37-19.57Zm-21.88,27.56a11.46,11.46,0,0,0-3.29,10.15L427,154.81l-18.38-9.67a11.52,11.52,0,0,0-5.28-1.28,11.72,11.72,0,0,0-5.36,1.31l-18.31,9.63,3.5-20.4s0-.08,0-.12a11.53,11.53,0,0,0-3.38-10L365.07,109.8l20.48-3a11.48,11.48,0,0,0,8.66-6.28L403.37,82l9.17,18.58a11.5,11.5,0,0,0,8.63,6.25l20.48,3Z" fill="#251ac7"></path><path d="M87.5,207.79h67.57a7,7,0,0,0,0-14H87.5a7,7,0,1,0,0,14Z" fill="#251ac7"></path><path d="M87.5,241H204.06a7,7,0,0,0,0-14H87.5a7,7,0,1,0,0,14Z" fill="#251ac7"></path></g></svg>