<svg xmlns="http://www.w3.org/2000/svg" viewBox="0 0 500 500" width="500" height="500" class="illustration"><title>Tools-06</title><g id="Layer_20" data-name="Layer 20"><polygon points="249.43 42.96 249.43 89.42 279.83 90.26 224.09 122.36 204.66 122.36 204.66 93.64 228.31 93.64 231.69 44.65 249.43 42.96" fill="#3fe2fd"></polygon><polygon points="184.39 396.88 210.57 400.26 222.4 372.39 190.3 371.54 184.39 396.88" fill="#3fe2fd"></polygon><polygon points="278.99 374.92 305.18 371.54 317 399.42 284.9 400.26 278.99 374.92" fill="#3fe2fd"></polygon><polygon points="98.23 112.22 112.59 309.88 296.73 324.24 161.58 331.84 163.27 348.74 88.09 345.36 86.4 108.85 98.23 112.22" fill="#3fe2fd"></polygon></g><g id="Layer_11" data-name="Layer 11"><path d="M413.31,99.78H302.6v-10a7,7,0,0,0-7-7H276.7v-42a7,7,0,0,0-7-7H232.53a7,7,0,0,0-7,7v42H202.12a7,7,0,0,0-7,7v10H86.7a7,7,0,0,0-7,7V343.29a7,7,0,0,0,7,7h69.9V368a7,7,0,0,0,7,7h15.71l-29.4,81.86a7,7,0,0,0,6.58,9.37h36a7,7,0,0,0,6.59-4.63L230.23,375h39.54l31.11,86.6a7,7,0,0,0,6.59,4.63h36a7,7,0,0,0,6.58-9.37L320.69,375H336.4a7,7,0,0,0,7-7V350.29h69.91a7,7,0,0,0,7-7V106.78A7,7,0,0,0,413.31,99.78Zm-7,236.51H343.4v-5.48a7,7,0,0,0-7-7H163.6a7,7,0,0,0-7,7v5.48H93.7V113.78H195.12V127a7,7,0,0,0,7,7H295.6a7,7,0,0,0,7-7V113.78H406.31ZM312.39,452.2,284.65,375h21.16l27.74,77.23ZM170.6,361V337.81H329.4V361Zm-4.15,91.23L194.19,375h21.16L187.61,452.2ZM262.7,47.8v35H239.53v-35Zm25.9,49V120H209.12V96.79Z" fill="#251ac7"></path><path d="M161.59,149.33a7,7,0,0,0-7,7v94c0,.17,0,.35,0,.52v42.86a7,7,0,0,0,7,7H338.41a7,7,0,0,0,7-7V156.33a7,7,0,0,0-7-7Zm126.77,137.4a7.68,7.68,0,0,0-.9-1.18l-31.1-32.9,33.25-22.82,41.55,33.85c.08.07.17.11.25.17v22.88ZM168.59,254.09,209,222.9l60.33,63.83H168.59Zm162.82-8.26-37-30.16a7,7,0,0,0-8.38-.35l-39.38,27-31.82-33.67a7,7,0,0,0-9.36-.73L168.59,236.4V163.33H331.41Z" fill="#251ac7"></path><path d="M262.52,213a19.78,19.78,0,1,0-19.78-19.78A19.8,19.8,0,0,0,262.52,213Zm0-25.56a5.78,5.78,0,1,1-5.78,5.78A5.78,5.78,0,0,1,262.52,187.44Z" fill="#251ac7"></path></g></svg>