<svg xmlns="http://www.w3.org/2000/svg" viewBox="0 0 500 500" width="500" height="500" class="illustration"><title>29.Predictive Chart</title><g id="Layer_2" data-name="Layer 2"><polygon points="148.06 359.72 59.66 359.72 59.66 264.27 92.6 264.27 92.6 338.88 148.06 359.72" fill="#3fe2fd"></polygon><polygon points="186.36 224.57 97.95 224.57 97.95 129.12 130.89 129.12 130.89 203.73 186.36 224.57" fill="#3fe2fd"></polygon><polygon points="397.34 260.42 393.96 274.69 428.87 309.6 420.62 316.36 375.19 270.93 394.34 260.04 397.34 260.42" fill="#3fe2fd"></polygon></g><g id="Layer_1" data-name="Layer 1"><path d="M62.71,267V354.4h86.47V267Zm52.69,78.84H81.62a7,7,0,0,1,0-14H115.4a7,7,0,0,1,0,14Zm0-25.9H81.62a7,7,0,0,1,0-14H115.4a7,7,0,0,1,0,14Zm7.89-29.29H81.62a7,7,0,0,1,0-14h41.67a7,7,0,0,1,0,14Z" fill="none"></path><path d="M163.18,233.26v23.93a6.94,6.94,0,0,1,.61,2.85V361.4a7,7,0,0,1-.61,2.86v14.53h23.23V233.26Z" fill="none"></path><path d="M156.18,219.24h31.91V131.9H101v87.36h54.76Zm-36.27-77.69h41.67a7,7,0,0,1,0,14H119.91a7,7,0,0,1,0-14Zm0,29.28H153.7a7,7,0,0,1,0,14H119.91a7,7,0,0,1,0-14Zm-7,32.9a7,7,0,0,1,7-7H153.7a7,7,0,0,1,0,14H119.91A7,7,0,0,1,112.91,203.73Z" fill="none"></path><rect x="228" y="287.89" width="23.23" height="90.9" fill="none"></rect><path d="M433.05,296.15l-37-34.09a3.15,3.15,0,0,0-2.16-.84h-.13a3.18,3.18,0,0,0-2.21,1l-8.74,9.48a3.2,3.2,0,0,0,.19,4.5l37,34.09a3.2,3.2,0,0,0,4.5-.19l8.74-9.48h0A3.19,3.19,0,0,0,433.05,296.15Z" fill="none"></path><path d="M374,187.11a67.83,67.83,0,1,0-67.83,67.82A67.91,67.91,0,0,0,374,187.11Zm-61.35,47.43a6.61,6.61,0,0,1-.4,1.31,7,7,0,0,1-.64,1.21,7.44,7.44,0,0,1-.87,1.06,7,7,0,0,1-6.32,1.91,6.61,6.61,0,0,1-1.31-.4,7,7,0,0,1-1.21-.64,6.82,6.82,0,0,1-1.06-.87,7,7,0,0,1-2.05-5,7.14,7.14,0,0,1,.13-1.37,7.89,7.89,0,0,1,.4-1.31,7,7,0,0,1,.65-1.2,6,6,0,0,1,.87-1.07,6.82,6.82,0,0,1,1.06-.87,7,7,0,0,1,1.21-.64,6.61,6.61,0,0,1,1.31-.4,7,7,0,0,1,4.05.4,7.12,7.12,0,0,1,2.27,1.51,7,7,0,0,1,.87,1.07,6.57,6.57,0,0,1,.64,1.2,7,7,0,0,1,.4,1.31,7.16,7.16,0,0,1,.14,1.37A7,7,0,0,1,312.66,234.54ZM322,198.41A14.24,14.24,0,0,0,314,211a7,7,0,1,1-14,0,27.65,27.65,0,0,1,1.49-8.9l-16.86-27.23A7,7,0,0,1,273.89,169a33.2,33.2,0,0,1,10.51-24.18,32.75,32.75,0,0,1,24.88-8.8A33.07,33.07,0,0,1,322,198.41Z" fill="none"></path><rect x="286.83" y="316.49" width="23.23" height="62.29" fill="none"></rect><path d="M123.29,276.69H81.62a7,7,0,0,0,0,14h41.67a7,7,0,0,0,0-14Z" fill="#251ac7"></path><path d="M115.4,306H81.62a7,7,0,0,0,0,14H115.4a7,7,0,0,0,0-14Z" fill="#251ac7"></path><path d="M115.4,331.88H81.62a7,7,0,0,0,0,14H115.4a7,7,0,0,0,0-14Z" fill="#251ac7"></path><path d="M119.91,155.55h41.67a7,7,0,0,0,0-14H119.91a7,7,0,0,0,0,14Z" fill="#251ac7"></path><path d="M119.91,184.83H153.7a7,7,0,0,0,0-14H119.91a7,7,0,0,0,0,14Z" fill="#251ac7"></path><path d="M160.7,203.73a7,7,0,0,0-7-7H119.91a7,7,0,0,0,0,14H153.7A7,7,0,0,0,160.7,203.73Z" fill="#251ac7"></path><path d="M411.46,378.79h-87.4v-69.3a7,7,0,0,0-7-7H279.83a7,7,0,0,0-7,7v69.3h-7.6v-97.9a7,7,0,0,0-7-7H221a7,7,0,0,0-7,7v97.9H200.41v-148a7,7,0,0,0,1.68-4.54V124.9a7,7,0,0,0-7-7H94a7,7,0,0,0-7,7V226.26a7,7,0,0,0,7,7h55.17V253H55.71a7,7,0,0,0-7,7V361.4a7,7,0,0,0,7,7h93.47v10.39H119a7,7,0,1,0,0,14H411.46a7,7,0,0,0,0-14ZM101,131.9h87.08v87.34H156.18l-.41,0H101ZM62.71,354.4V267h86.47V354.4Zm100.47,24.39V364.26a7,7,0,0,0,.61-2.86V260a6.94,6.94,0,0,0-.61-2.85V233.26h23.23V378.79Zm64.82,0v-90.9h23.23v90.9Zm58.83,0v-62.3h23.23v62.3Z" fill="#251ac7"></path><path d="M405.54,251.76a17.18,17.18,0,0,0-24.27,1l-.19.21-12.93-12.5a81.6,81.6,0,1,0-10,9.81l13.49,13a17.19,17.19,0,0,0,1.88,23.21l37,34.09a17.19,17.19,0,0,0,24.27-1l8.74-9.48h0a17.2,17.2,0,0,0-1-24.28ZM238.36,187.11a67.83,67.83,0,1,1,67.82,67.82A67.91,67.91,0,0,1,238.36,187.11ZM433.24,300.64l-8.74,9.48a3.2,3.2,0,0,1-4.5.19l-37-34.09a3.2,3.2,0,0,1-.19-4.5l8.74-9.48a3.18,3.18,0,0,1,2.21-1h.13a3.15,3.15,0,0,1,2.16.84l37,34.09a3.19,3.19,0,0,1,.19,4.49Z" fill="#251ac7"></path><path d="M309.28,136a32.75,32.75,0,0,0-24.88,8.8A33.2,33.2,0,0,0,273.89,169a7,7,0,0,0,14,0,19.07,19.07,0,0,1,20.43-19,19.07,19.07,0,0,1,7.28,36,28.6,28.6,0,0,0-14.16,16.18A27.65,27.65,0,0,0,300,211a7,7,0,1,0,14,0,14.24,14.24,0,0,1,8-12.61A33.07,33.07,0,0,0,309.28,136Z" fill="#251ac7"></path><path d="M312.26,230.49a6.57,6.57,0,0,0-.64-1.2,7,7,0,0,0-.87-1.07,7.12,7.12,0,0,0-2.27-1.51,7,7,0,0,0-4.05-.4,6.61,6.61,0,0,0-1.31.4,7,7,0,0,0-1.21.64,6.82,6.82,0,0,0-1.06.87,6,6,0,0,0-.87,1.07,7,7,0,0,0-.65,1.2,7.89,7.89,0,0,0-.4,1.31,7.14,7.14,0,0,0-.13,1.37,7,7,0,0,0,2.05,5,6.82,6.82,0,0,0,1.06.87,7,7,0,0,0,1.21.64,6.61,6.61,0,0,0,1.31.4,7,7,0,0,0,6.32-1.91,7.44,7.44,0,0,0,.87-1.06,7,7,0,0,0,.64-1.21,6.61,6.61,0,0,0,.4-1.31,7,7,0,0,0,.14-1.37,7.16,7.16,0,0,0-.14-1.37A7,7,0,0,0,312.26,230.49Z" fill="#251ac7"></path></g></svg>