<svg xmlns="http://www.w3.org/2000/svg" viewBox="0 0 500 500" width="500" height="500" class="illustration"><g id="Layer_10" data-name="Layer 10"><rect x="76.74" y="61.3" width="29.96" height="387.72" fill="#3fe2fd"></rect><rect x="151.13" y="212.45" width="26.04" height="26.04" fill="#3fe2fd"></rect><rect x="223.84" y="212.45" width="26.04" height="26.04" fill="#3fe2fd"></rect><rect x="297.37" y="212.45" width="26.04" height="26.04" fill="#3fe2fd"></rect><rect x="151.13" y="287.51" width="26.04" height="26.04" fill="#3fe2fd"></rect><rect x="223.84" y="287.51" width="26.04" height="26.04" fill="#3fe2fd"></rect><rect x="297.37" y="287.51" width="26.04" height="26.04" fill="#3fe2fd"></rect><circle cx="319.55" cy="379.52" r="38.21" fill="#3fe2fd"></circle><polygon points="327.5 75.79 327.5 141.21 404.9 141.21 327.5 75.79" fill="#3fe2fd"></polygon></g><g id="Layer_3" data-name="Layer 3"><path d="M396.72,463H84.65a10,10,0,0,1-10-10V67.44a10,10,0,0,1,10-10H326.57a7,7,0,0,1,5.16,2.27l73.17,79.8a7,7,0,0,1,1.84,4.73V453A10,10,0,0,1,396.72,463ZM88.63,449H392.74V146.94L323.49,71.42H88.63Z" fill="#251ac7"></path><path d="M399.74,151H332.3a10,10,0,0,1-10-10V64.42a7,7,0,0,1,12.24-4.64L405,139.3A7,7,0,0,1,399.74,151Zm-63.47-14h47.92L336.27,82.87Z" fill="#251ac7"></path><path d="M191,119.06H144a7,7,0,0,1,0-14H191a7,7,0,0,1,0,14Z" fill="#251ac7"></path><path d="M333.89,199.72H144a7,7,0,0,1,0-14H333.89a7,7,0,0,1,0,14Z" fill="#251ac7"></path><path d="M333.89,270H144a7,7,0,1,1,0-14H333.89a7,7,0,0,1,0,14Z" fill="#251ac7"></path><path d="M228.49,367.75H144a7,7,0,1,1,0-14h84.45a7,7,0,0,1,0,14Z" fill="#251ac7"></path><path d="M228.49,407.87H144a7,7,0,1,1,0-14h84.45a7,7,0,0,1,0,14Z" fill="#251ac7"></path><path d="M343.55,412.68a7,7,0,0,1-6.51-4.44l-16.32-41.47L303,408.42a7,7,0,0,1-12.88-5.49l24.45-57.36a7,7,0,0,1,13,.18l22.57,57.36a7,7,0,0,1-6.52,9.57Z" fill="#251ac7"></path><path d="M333.59,397H309.7a7,7,0,0,1,0-14h23.89a7,7,0,0,1,0,14Z" fill="#251ac7"></path></g></svg>